<svg xmlns="http://www.w3.org/2000/svg" width="40" height="40" viewBox="0 0 40 40">
  <defs>
    <linearGradient id="bg" x1="0%" y1="0%" x2="100%" y2="100%">
      <stop offset="0%" style="stop-color:#1565C0;stop-opacity:1" />
      <stop offset="100%" style="stop-color:#0D47A1;stop-opacity:1" />
    </linearGradient>
    <filter id="shadow" x="-20%" y="-20%" width="140%" height="140%">
      <feDropShadow dx="0" dy="1" stdDeviation="1" flood-color="#000" flood-opacity="0.3"/>
    </filter>
  </defs>
  <!-- Shield base -->
  <path d="M20 2 L36 8 L36 19 C36 28 28 36 20 38 C12 36 4 28 4 19 L4 8 Z" fill="url(#bg)" filter="url(#shadow)"/>
  <!-- Inner highlight -->
  <path d="M20 5 L33 10 L33 19 C33 27 26 34 20 36 C14 34 7 27 7 19 L7 10 Z" fill="none" stroke="#42A5F5" stroke-width="1.2"/>
  <!-- Letter Q -->
  <circle cx="17" cy="17" r="5" fill="none" stroke="white" stroke-width="2"/>
  <circle cx="19" cy="19" r="1.5" fill="white"/>
  <!-- Letter Z -->
  <path d="M23 13 L30 13 L30 15 L25 22 L30 22 L30 24 L23 24 L23 22 L28 15 L23 15 Z" fill="white"/>
</svg>
